<svg width="100" height="100" viewBox="0 0 100 100" fill="none" xmlns="http://www.w3.org/2000/svg">
<path d="M87 50.5C87 67.6784 75.4493 82.1589 59.6909 86.5987L56.7596 75.9933C67.8659 72.8367 76 62.6183 76 50.5C76 35.8645 64.1355 24 49.5 24C34.8645 24 23 35.8645 23 50.5C23 62.9472 31.5817 73.39 43.1512 76.2346L40.3708 86.881C24.0722 82.8042 12 68.0619 12 50.5C12 29.7893 28.7893 13 49.5 13C70.2107 13 87 29.7893 87 50.5Z" fill="white"/>
<path d="M28.2812 96V90.912H26.3132V90.4H30.8413V90.912H28.8732V96H28.2812Z" fill="white"/>
<path d="M31.5576 96V91.8H32.1016V92.944L32.0456 92.744C32.163 92.424 32.3603 92.1813 32.6376 92.016C32.915 91.8453 33.259 91.76 33.6696 91.76V92.312C33.6483 92.312 33.627 92.312 33.6056 92.312C33.5843 92.3067 33.563 92.304 33.5416 92.304C33.099 92.304 32.7523 92.44 32.5016 92.712C32.251 92.9787 32.1256 93.36 32.1256 93.856V96H31.5576Z" fill="white"/>
<path d="M34.7061 96V91.8H35.2741V96H34.7061ZM34.9941 90.872C34.8767 90.872 34.7781 90.832 34.6981 90.752C34.6181 90.672 34.5781 90.576 34.5781 90.464C34.5781 90.352 34.6181 90.2587 34.6981 90.184C34.7781 90.104 34.8767 90.064 34.9941 90.064C35.1114 90.064 35.2101 90.1013 35.2901 90.176C35.3701 90.2507 35.4101 90.344 35.4101 90.456C35.4101 90.5733 35.3701 90.672 35.2901 90.752C35.2154 90.832 35.1167 90.872 34.9941 90.872Z" fill="white"/>
<path d="M39.0225 96.04C38.6598 96.04 38.3318 95.9573 38.0385 95.792C37.7452 95.6213 37.5105 95.3787 37.3345 95.064C37.1638 94.744 37.0785 94.3547 37.0785 93.896C37.0785 93.4373 37.1638 93.0507 37.3345 92.736C37.5052 92.416 37.7372 92.1733 38.0305 92.008C38.3238 91.8427 38.6545 91.76 39.0225 91.76C39.4225 91.76 39.7798 91.8507 40.0945 92.032C40.4145 92.208 40.6652 92.4587 40.8465 92.784C41.0278 93.104 41.1185 93.4747 41.1185 93.896C41.1185 94.3227 41.0278 94.696 40.8465 95.016C40.6652 95.336 40.4145 95.5867 40.0945 95.768C39.7798 95.9493 39.4225 96.04 39.0225 96.04ZM36.8545 97.552V91.8H37.3985V93.064L37.3425 93.904L37.4225 94.752V97.552H36.8545ZM38.9825 95.536C39.2812 95.536 39.5478 95.4693 39.7825 95.336C40.0172 95.1973 40.2038 95.0053 40.3425 94.76C40.4812 94.5093 40.5505 94.2213 40.5505 93.896C40.5505 93.5707 40.4812 93.2853 40.3425 93.04C40.2038 92.7947 40.0172 92.6027 39.7825 92.464C39.5478 92.3253 39.2812 92.256 38.9825 92.256C38.6838 92.256 38.4145 92.3253 38.1745 92.464C37.9398 92.6027 37.7532 92.7947 37.6145 93.04C37.4812 93.2853 37.4145 93.5707 37.4145 93.896C37.4145 94.2213 37.4812 94.5093 37.6145 94.76C37.7532 95.0053 37.9398 95.1973 38.1745 95.336C38.4145 95.4693 38.6838 95.536 38.9825 95.536Z" fill="white"/>
<path d="M46.5381 96.04C46.1755 96.04 45.8475 95.9573 45.5541 95.792C45.2608 95.6213 45.0261 95.3787 44.8501 95.064C44.6795 94.744 44.5941 94.3547 44.5941 93.896C44.5941 93.4373 44.6795 93.0507 44.8501 92.736C45.0208 92.416 45.2528 92.1733 45.5461 92.008C45.8395 91.8427 46.1701 91.76 46.5381 91.76C46.9381 91.76 47.2955 91.8507 47.6101 92.032C47.9301 92.208 48.1808 92.4587 48.3621 92.784C48.5435 93.104 48.6341 93.4747 48.6341 93.896C48.6341 94.3227 48.5435 94.696 48.3621 95.016C48.1808 95.336 47.9301 95.5867 47.6101 95.768C47.2955 95.9493 46.9381 96.04 46.5381 96.04ZM44.3701 97.552V91.8H44.9141V93.064L44.8581 93.904L44.9381 94.752V97.552H44.3701ZM46.4981 95.536C46.7968 95.536 47.0635 95.4693 47.2981 95.336C47.5328 95.1973 47.7195 95.0053 47.8581 94.76C47.9968 94.5093 48.0661 94.2213 48.0661 93.896C48.0661 93.5707 47.9968 93.2853 47.8581 93.04C47.7195 92.7947 47.5328 92.6027 47.2981 92.464C47.0635 92.3253 46.7968 92.256 46.4981 92.256C46.1995 92.256 45.9301 92.3253 45.6901 92.464C45.4555 92.6027 45.2688 92.7947 45.1301 93.04C44.9968 93.2853 44.9301 93.5707 44.9301 93.896C44.9301 94.2213 44.9968 94.5093 45.1301 94.76C45.2688 95.0053 45.4555 95.1973 45.6901 95.336C45.9301 95.4693 46.1995 95.536 46.4981 95.536Z" fill="white"/>
<path d="M49.792 96V90.064H50.36V96H49.792Z" fill="white"/>
<path d="M54.5724 96V95.072L54.5484 94.92V93.368C54.5484 93.0107 54.4471 92.736 54.2444 92.544C54.0471 92.352 53.7511 92.256 53.3564 92.256C53.0844 92.256 52.8258 92.3013 52.5804 92.392C52.3351 92.4827 52.1271 92.6027 51.9564 92.752L51.7004 92.328C51.9138 92.1467 52.1698 92.008 52.4684 91.912C52.7671 91.8107 53.0818 91.76 53.4124 91.76C53.9564 91.76 54.3751 91.896 54.6684 92.168C54.9671 92.4347 55.1164 92.8427 55.1164 93.392V96H54.5724ZM53.1244 96.04C52.8098 96.04 52.5351 95.9893 52.3004 95.888C52.0711 95.7813 51.8951 95.6373 51.7724 95.456C51.6498 95.2693 51.5884 95.056 51.5884 94.816C51.5884 94.5973 51.6391 94.4 51.7404 94.224C51.8471 94.0427 52.0178 93.8987 52.2524 93.792C52.4924 93.68 52.8124 93.624 53.2124 93.624H54.6604V94.048H53.2284C52.8231 94.048 52.5404 94.12 52.3804 94.264C52.2258 94.408 52.1484 94.5867 52.1484 94.8C52.1484 95.04 52.2418 95.232 52.4284 95.376C52.6151 95.52 52.8764 95.592 53.2124 95.592C53.5324 95.592 53.8071 95.52 54.0364 95.376C54.2711 95.2267 54.4418 95.0133 54.5484 94.736L54.6764 95.128C54.5698 95.4053 54.3831 95.6267 54.1164 95.792C53.8551 95.9573 53.5244 96.04 53.1244 96.04Z" fill="white"/>
<path d="M58.8032 91.76C59.1445 91.76 59.4432 91.8267 59.6992 91.96C59.9605 92.088 60.1632 92.2853 60.3072 92.552C60.4565 92.8187 60.5312 93.1547 60.5312 93.56V96H59.9632V93.616C59.9632 93.1733 59.8512 92.84 59.6272 92.616C59.4085 92.3867 59.0992 92.272 58.6992 92.272C58.4005 92.272 58.1392 92.3333 57.9152 92.456C57.6965 92.5733 57.5259 92.7467 57.4032 92.976C57.2859 93.2 57.2272 93.472 57.2272 93.792V96H56.6592V91.8H57.2032V92.952L57.1152 92.736C57.2485 92.432 57.4619 92.1947 57.7552 92.024C58.0485 91.848 58.3979 91.76 58.8032 91.76Z" fill="white"/>
<path d="M64.2094 91.76C64.5508 91.76 64.8494 91.8267 65.1054 91.96C65.3668 92.088 65.5694 92.2853 65.7134 92.552C65.8628 92.8187 65.9374 93.1547 65.9374 93.56V96H65.3694V93.616C65.3694 93.1733 65.2574 92.84 65.0334 92.616C64.8148 92.3867 64.5054 92.272 64.1054 92.272C63.8068 92.272 63.5454 92.3333 63.3214 92.456C63.1028 92.5733 62.9321 92.7467 62.8094 92.976C62.6921 93.2 62.6334 93.472 62.6334 93.792V96H62.0654V91.8H62.6094V92.952L62.5214 92.736C62.6548 92.432 62.8681 92.1947 63.1614 92.024C63.4548 91.848 63.8041 91.76 64.2094 91.76Z" fill="white"/>
<path d="M69.2557 96.04C68.8184 96.04 68.4344 95.9493 68.1037 95.768C67.773 95.5813 67.5144 95.328 67.3277 95.008C67.141 94.6827 67.0477 94.312 67.0477 93.896C67.0477 93.48 67.1357 93.112 67.3117 92.792C67.493 92.472 67.7384 92.2213 68.0477 92.04C68.3624 91.8533 68.7144 91.76 69.1037 91.76C69.4984 91.76 69.8477 91.8507 70.1517 92.032C70.461 92.208 70.7037 92.4587 70.8797 92.784C71.0557 93.104 71.1437 93.4747 71.1437 93.896C71.1437 93.9227 71.141 93.952 71.1357 93.984C71.1357 94.0107 71.1357 94.04 71.1357 94.072H67.4797V93.648H70.8317L70.6077 93.816C70.6077 93.512 70.541 93.2427 70.4077 93.008C70.2797 92.768 70.1037 92.5813 69.8797 92.448C69.6557 92.3147 69.397 92.248 69.1037 92.248C68.8157 92.248 68.557 92.3147 68.3277 92.448C68.0984 92.5813 67.9197 92.768 67.7917 93.008C67.6637 93.248 67.5997 93.5227 67.5997 93.832V93.92C67.5997 94.24 67.669 94.5227 67.8077 94.768C67.9517 95.008 68.149 95.1973 68.3997 95.336C68.6557 95.4693 68.9464 95.536 69.2717 95.536C69.5277 95.536 69.765 95.4907 69.9837 95.4C70.2077 95.3093 70.3997 95.1707 70.5597 94.984L70.8797 95.352C70.693 95.576 70.4584 95.7467 70.1757 95.864C69.8984 95.9813 69.5917 96.04 69.2557 96.04Z" fill="white"/>
<path d="M72.2998 96V91.8H72.8438V92.944L72.7878 92.744C72.9051 92.424 73.1025 92.1813 73.3798 92.016C73.6571 91.8453 74.0011 91.76 74.4118 91.76V92.312C74.3905 92.312 74.3691 92.312 74.3478 92.312C74.3265 92.3067 74.3051 92.304 74.2838 92.304C73.8411 92.304 73.4945 92.44 73.2438 92.712C72.9931 92.9787 72.8678 93.36 72.8678 93.856V96H72.2998Z" fill="white"/>
</svg>
